# AST/ASF file generated using VICON BodyLanguage
# -----------------------------------------------
:version 1.10
:name VICON
:units
  mass 1.0
  length 0.45
  angle deg
:documentation
   .ast/.asf automatically generated from VICON data using
   VICON BodyBuilder and BodyLanguage model FoxedUp or BRILLIANT.MOD
:root
   order TX TY TZ RX RY RZ
   axis XYZ
   position 0 0 0  
   orientation 0 0 0 
:bonedata
  begin
     id 1 
     name lhipjoint
     direction 0.677091 -0.635792 0.370561 
     length 2.74323 
     axis 0 0 0  XYZ
  end
  begin
     id 2 
     name lfemur
     direction 0.34202 -0.939693 0  
     length 7.44995  
     axis 0 0 20  XYZ
    dof rx ry rz
    limits (-160.0 20.0)
           (-70.0 70.0)
           (-60.0 70.0)
  end
  begin
     id 3 
     name ltibia
     direction 0.34202 -0.939693 0   
     length 7.34467   
     axis 0 0 20   XYZ
    dof rx
    limits (-10.0 170.0)
  end
  begin
     id 4 
     name lfoot
     direction 0.101953 -0.280114 0.954537   
     length 1.72105   
     axis -90 7.62852e-016 20   XYZ
    dof rx rz
    limits (-45.0 90.0)
           (-70.0 20.0)
  end
  begin
     id 5 
     name ltoes
     direction 1.53537e-011 -4.21915e-011 1   
     length 0.865872   
     axis -90 7.62852e-016 20   XYZ
    dof rx
    limits (-90.0 20.0)
  end
  begin
     id 6 
     name rhipjoint
     direction -0.695735 -0.620586 0.361699   
     length 2.81045  
     axis 0 0 0  XYZ 
  end
  begin
     id 7 
     name rfemur
     direction -0.34202 -0.939693 0   
     length 7.29387   
     axis 0 0 -20   XYZ
    dof rx ry rz
    limits (-160.0 20.0)
           (-70.0 70.0)
           (-70.0 60.0)
  end
  begin
     id 8 
     name rtibia
     direction -0.34202 -0.939693 0   
     length 7.44935   
     axis 0 0 -20   XYZ
    dof rx
    limits (-10.0 170.0)
 end
 begin
     id 9 
     name rfoot
     direction -0.104163 -0.286184 0.952496   
     length 1.77731  
     axis -90 -7.62852e-016 -20   XYZ
    dof rx rz
    limits (-45.0 90.0)
           (-20.0 70.0)
  end
  begin
     id 10 
     name rtoes
     direction -1.5355e-011 -4.21888e-011 1   
     length 0.892424   
     axis -90 -7.62852e-016 -20   XYZ
    dof rx
    limits (-90.0 20.0)
  end
  begin
     id 11 
     name lowerback
     direction 0.0100202 0.997226 -0.0737589   
     length 2.16892   
     axis 0 0 0   XYZ
    dof rx ry rz
    limits (-20.0 45.0)
           (-30.0 30.0)
           (-30.0 30.0)
  end
  begin
     id 12 
     name upperback
     direction 0.00432398 0.999988 -0.00215019   
     length 2.17326   
     axis 0 0 0   XYZ
    dof rx ry rz
    limits (-20.0 45.0)
           (-30.0 30.0)
           (-30.0 30.0)
  end
  begin
     id 13 
     name thorax
     direction -0.00195047 0.999485 0.0320434   
     length 2.18139   
     axis 0 0 0   XYZ
    dof rx ry rz
    limits (-20.0 45.0)
           (-30.0 30.0)
           (-30.0 30.0)
  end
  begin
     id 14 
     name lowerneck
     direction 0.00782762 0.986241 0.165128   
     length 1.88415   
     axis 0 0 0   XYZ
    dof rx ry rz
    limits (-20.0 45.0)
           (-30.0 30.0)
           (-30.0 30.0)
  end
  begin
     id 15 
     name upperneck
     direction 0.00988667 0.981098 -0.193258   
     length 1.9242   
     axis 0 0 0   XYZ
    dof rx ry rz
    limits (-20.0 45.0)
           (-30.0 30.0)
           (-30.0 30.0)
  end
  begin
     id 16
     name head
     direction 0.00252199 0.996513 -0.0833958  
     length 1.93887  
     axis 0 0 0   XYZ
    dof rx ry rz
    limits (-20.0 45.0)
           (-30.0 30.0)
           (-30.0 30.0)
  end
  begin
     id 17 
     name lclavicle
     direction 0.929492 0.368193 -0.0218667  
     length 3.5955  
     axis 0 0 0   XYZ
    dof ry rz
    limits (-20.0 10.0)
           (0.0 20.0)
  end
  begin
     id 18 
     name lhumerus
     direction 1 -4.48972e-011 1.41911e-027   
     length 5.2795   
     axis 180 -30 -90   XYZ
    dof rx ry rz
    limits (-60.0 90.0)
           (-90.0 90.0)
           (-90.0 90.0)
  end
  begin
     id 19
     name lradius
     direction 1 -4.48963e-011 7.05772e-027   
     length 3.53504   
     axis 180 -30 -90   XYZ
    dof rx
    limits (-10.0 170.0)
  end
  begin
     id 20
     name lwrist
     direction 1 -4.48957e-011 9.54866e-027   
     length 1.76752   
     axis -7.69462e-015 90 90   XYZ
    dof ry
    limits (-180.0 0.0)
 end
  begin
     id 21 
     name lhand
     direction 1 -4.48979e-011 1.90973e-026   
     length 0.667948   
     axis -1.21857e-014 90 90   XYZ
    dof rx rz
    limits (-90.0 90.0)
           (-45.0 45.0)
  end
  begin
     id 22 
     name lfingers
     direction 1 -4.48987e-011 3.81946e-026   
     length 0.538517   
     axis -2.43714e-014 90 90   XYZ
    dof rx
    limits (0.0 90.0)
  end
  begin
     id 23
     name lthumb
     direction 0.707107 -6.34962e-011 0.707107   
     length 0.773206   
     axis -90 45 2.85299e-015   XYZ
    dof rx rz
    limits (-45.0 45.0)
           (-45.0 45.0)
  end
  begin
     id 24 
     name rclavicle
     direction -0.898763 0.414256 -0.143584   
     length 3.5176  
     axis 0 0 0   XYZ 
    dof ry rz
    limits (-10.0 20.0)
           (-20.0 0.0)
  end
  begin
     id 25 
     name rhumerus
     direction -1 -4.48971e-011 1.129e-027  
     length 5.25035   
     axis 180 30 90   XYZ
    dof rx ry rz
    limits (-90.0 60.0)
           (-90.0 90.0)
           (-90.0 90.0)
  end
  begin
     id 26 
     name rradius
     direction -1 -4.48955e-011 6.34664e-027   
     length 3.58884   
     axis 180 30 90   XYZ
    dof rx
    limits (-10.0 170.0)
  end
  begin
     id 27 
     name rwrist
     direction -1 -4.48966e-011 9.54866e-027   
     length 1.79442   
     axis -7.69462e-015 -90 -90   XYZ
    dof ry
    limits (-180.0 0.0)
  end
  begin
     id 28
     name rhand
     direction -1 -4.48973e-011 1.90973e-026   
     length 0.779235   
     axis -1.21857e-014 -90 -90   XYZ
    dof rx rz
    limits (-90.0 90.0)
           (-45.0 45.0)
  end
  begin
     id 29
     name rfingers
     direction -1 -4.48984e-011 3.81946e-026   
     length 0.62824   
     axis -2.43714e-014 -90 -90   XYZ
    dof rx
    limits (0.0 90.0)
  end
  begin
     id 30
     name rthumb
     direction -0.707107 -6.34968e-011 0.707107   
     length 0.90203   
     axis -90 -45 -2.85299e-015   XYZ
    dof rx rz
    limits (-45.0 45.0)
           (-45.0 45.0)
  end
:hierarchy
  begin
    root lhipjoint rhipjoint lowerback
    lhipjoint lfemur
    lfemur ltibia
    ltibia lfoot
    lfoot ltoes
    rhipjoint rfemur
    rfemur rtibia
    rtibia rfoot
    rfoot rtoes
    lowerback upperback
    upperback thorax
    thorax lowerneck lclavicle rclavicle
    lowerneck upperneck
    upperneck head
    lclavicle lhumerus
    lhumerus lradius
    lradius lwrist
    lwrist lhand lthumb
    lhand lfingers
    rclavicle rhumerus
    rhumerus rradius
    rradius rwrist
    rwrist rhand rthumb
    rhand rfingers
  end

#!OML:ASF I:\Random Stuff\random\construction\7_22_03\Session 2\subj1.ASF
:FULLY-SPECIFIED
:DEGREES
85
root -19.9276 17.5061 -3.84169 -151.166 78.8322 -157.068
lowerback 3.08192 0.780961 -1.49466
upperback -2.32498 1.02692 1.12241
thorax -4.17323 0.578112 1.92774
lowerneck -21.4511 -0.841608 0.00851636
upperneck 34.9245 -1.62761 3.57557
head 16.1034 0.224735 1.33401
rclavicle -5.91384e-015 1.78906e-014
rhumerus -36.1128 0.736225 -79.4835
rradius 31.3544
rwrist 4.63078
rhand -18.4849 21.9522
rfingers 7.12502
rthumb 7.8023 -7.88381
lclavicle -5.91384e-015 1.78906e-014
lhumerus -38.2457 -13.5866 94.2826
lradius 32.432
lwrist 26.5123
lhand -20.4141 55.7514
lfingers 7.12502
lthumb 5.94004 85.6481
rfemur -6.3132 -1.2828 22.6825
rtibia 24.2948
rfoot -11.9581 -28.6928
rtoes -16.7361
lfemur -13.3364 -7.17764 -17.3044
ltibia 27.6315
lfoot -21.9083 3.56568
ltoes -24.9966
86
root -19.9042 17.5213 -3.89277 -150.436 78.8402 -156.226
lowerback 3.21652 0.78199 -1.44573
upperback -2.26211 1.02887 1.14143
thorax -4.18378 0.57705 1.91853
lowerneck -21.3862 -0.915815 0.0652546
upperneck 35.2601 -1.76553 3.6503
head 16.2613 0.201981 1.34142
rclavicle 2.78795e-014 2.14687e-014
rhumerus -36.1145 0.805004 -79.6397
rradius 31.8383
rwrist 4.72579
rhand -18.67 21.7463
rfingers 7.12502
rthumb 7.62368 -8.09625
lclavicle 2.78795e-014 2.14687e-014
lhumerus -38.1585 -13.3638 94.0608
lradius 31.8944
lwrist 26.5442
lhand -20.2624 55.3822
lfingers 7.12502
lthumb 6.08653 85.2747
rfemur -7.42014 -2.3692 22.4184
rtibia 26.6383
rfoot -11.32 -27.0247
rtoes -16.6825
lfemur -12.7683 -7.08762 -17.3331
ltibia 26.9464
lfoot -21.5905 3.35048
ltoes -24.1314
87
root -19.8826 17.5342 -3.94095 -149.967 78.9348 -155.592
lowerback 3.42219 0.748882 -1.57182
upperback -2.15916 0.976746 1.20898
thorax -4.19485 0.554336 2.06114
lowerneck -21.3377 -0.902502 0.0865543
upperneck 35.5231 -1.73536 3.65126
head 16.3817 0.228202 1.3533
rclavicle 1.49089e-016 4.77083e-015
rhumerus -36.0374 0.831165 -79.7019
rradius 32.3036
rwrist 4.9248
rhand -18.4737 21.9964
rfingers 7.12502
rthumb 7.81316 -7.83923
lclavicle 1.49089e-016 4.77083e-015
lhumerus -38.0254 -12.9224 93.7913
lradius 31.4291
lwrist 26.8491
lhand -20.3813 55.4321
lfingers 7.12502
lthumb 5.97173 85.328
rfemur -8.69901 -3.22675 22.0729
rtibia 29.3138
rfoot -10.2148 -25.4323
rtoes -17.3598
lfemur -12.0903 -7.0622 -17.4443
ltibia 26.1935
lfoot -21.3729 3.36763
ltoes -23.8195
88
root -19.8639 17.5507 -3.98831 -149.845 79.1283 -155.352
lowerback 3.66617 0.764716 -1.78663
upperback -2.07091 0.981313 1.2095
thorax -4.24593 0.561599 2.17993
lowerneck -21.2543 -0.820177 0.0596044
upperneck 35.7357 -1.67662 3.90997
head 16.4734 0.298011 1.49217
rclavicle 2.46741e-014 -7.95139e-015
rhumerus -35.9899 0.93492 -79.8236
rradius 32.7905
rwrist 4.78183
rhand -17.9991 22.633
rfingers 7.12502
rthumb 8.27123 -7.18504
lclavicle 2.46741e-014 -7.95139e-015
lhumerus -37.8914 -12.6117 93.564
lradius 31.1159
lwrist 27.08
lhand -20.647 56.4997
lfingers 7.12502
lthumb 5.7152 86.4027
rfemur -10.2438 -4.03328 21.5837
rtibia 32.2457
rfoot -8.87485 -23.6298
rtoes -17.2426
lfemur -11.4228 -6.99828 -17.6864
ltibia 25.3852
lfoot -21.1658 3.42699
ltoes -23.2223
89
root -19.8456 17.5656 -4.03317 -149.799 79.4198 -155.267
lowerback 3.86773 0.840437 -2.00357
upperback -2.01603 1.06184 1.11961
thorax -4.31006 0.60574 2.20074
lowerneck -21.0296 -0.63565 0.117326
upperneck 35.9064 -1.54114 4.31639
head 16.5093 0.434552 1.69602
rclavicle 2.16924e-014 7.95139e-015
rhumerus -36.0008 1.05368 -80.052
rradius 33.3172
rwrist 4.40731
rhand -19.297 21.5863
rfingers 7.12502
rthumb 7.01846 -8.27733
lclavicle 2.16924e-014 7.95139e-015
lhumerus -37.7572 -12.4115 93.2579
lradius 30.7908
lwrist 27.2489
lhand -20.5044 56.4996
lfingers 7.12502
lthumb 5.8528 86.3988
rfemur -12.0046 -4.95468 21.0168
rtibia 35.3015
rfoot -7.60273 -21.3549
rtoes -15.0149
lfemur -10.8254 -6.8405 -18.002
ltibia 24.5477
lfoot -20.9146 3.48178
ltoes -22.7374
90
root -19.825 17.5725 -4.07245 -149.673 79.7439 -155.047
lowerback 4.10352 0.889415 -2.2573
upperback -1.93573 1.1042 1.0624
thorax -4.36692 0.632152 2.27841
lowerneck -21.2579 -0.85917 0.289471
upperneck 36.2769 -1.76926 3.84726
head 16.7543 0.306034 1.42669
rclavicle -4.39811e-015 -1.47101e-014
rhumerus -36.0025 1.16538 -80.2384
rradius 33.9063
rwrist 4.09587
rhand -19.8338 22.0387
rfingers 7.12502
rthumb 6.50022 -7.84151
lclavicle -4.39811e-015 -1.47101e-014
lhumerus -37.7254 -12.3602 93.0544
lradius 30.6756
lwrist 27.48
lhand -20.3772 56.5631
lfingers 7.12502
lthumb 5.97564 86.4588
rfemur -13.751 -5.72985 20.5008
rtibia 38.3439
rfoot -6.37671 -18.8871
rtoes -10.707
lfemur -10.1501 -6.72103 -18.2986
ltibia 23.6928
lfoot -20.6345 3.58804
ltoes -22.2714
91
root -19.8023 17.5782 -4.10627 -150.055 80.083 -155.285
lowerback 4.43097 0.895628 -2.66435
upperback -1.83688 1.07796 1.03909
thorax -4.45665 0.629601 2.48201
lowerneck -21.084 -0.604451 0.209277
upperneck 36.4041 -1.46125 4.20561
head 16.7753 0.481683 1.66799
rclavicle -6.4605e-015 8.34896e-015
rhumerus -36.1555 1.54184 -80.4295
rradius 34.6291
rwrist 3.54149
rhand -20.3932 22.8688
rfingers 7.12502
rthumb 5.96019 -7.02733
lclavicle -6.4605e-015 8.34896e-015
lhumerus -37.6652 -11.9947 92.6827
lradius 30.6093
lwrist 27.9678
lhand -20.1099 55.8474
lfingers 7.12502
lthumb 6.23372 85.7356
rfemur -15.4144 -6.27742 19.9423
rtibia 41.2529
rfoot -5.42933 -16.5716
rtoes -6.03773
lfemur -9.38828 -6.56623 -18.6604
ltibia 22.8215
lfoot -20.3383 3.69668
ltoes -21.8798
92
root -19.7766 17.5844 -4.13568 -150.84 80.4441 -155.93
lowerback 4.79951 0.899748 -3.12754
upperback -1.75448 1.03973 0.97821
thorax -4.58616 0.623171 2.67904
lowerneck -21.3722 -0.649038 0.348956
upperneck 36.8224 -1.47034 3.91791
head 17.0621 0.467502 1.53122
rclavicle -1.54307e-014 3.18055e-015
rhumerus -36.5432 2.22556 -80.8038
rradius 35.5034
rwrist 2.47913
rhand -20.9601 22.6044
rfingers 7.12502
rthumb 5.41283 -7.3065
lclavicle -1.54307e-014 3.18055e-015
lhumerus -37.7166 -11.95 92.4785
lradius 30.7291
lwrist 28.3131
lhand -20.2329 56.3622
lfingers 7.12502
lthumb 6.11499 86.2539
rfemur -17.0342 -6.63973 19.3396
rtibia 43.9121
rfoot -5.05874 -14.4758
rtoes -3.72193
lfemur -8.59888 -6.39738 -19.0697
ltibia 21.9291
lfoot -20.1246 3.74103
ltoes -21.0342
93
root -19.7442 17.5902 -4.16079 -151.565 80.8092 -156.511
lowerback 5.09256 0.932801 -3.53083
upperback -1.64173 1.04212 0.876201
thorax -4.64172 0.633099 2.79718
lowerneck -21.3853 -0.638887 0.456388
upperneck 36.894 -1.45068 3.79851
head 17.1002 0.474048 1.46476
rclavicle -2.37548e-014 4.37326e-015
rhumerus -36.6902 2.66053 -81.18
rradius 36.1764
rwrist 1.51597
rhand -21.3561 22.4725
rfingers 7.12502
rthumb 5.0305 -7.44782
lclavicle -2.37548e-014 4.37326e-015
lhumerus -37.6176 -11.8162 92.0726
lradius 30.8028
lwrist 28.8904
lhand -20.0603 56.419
lfingers 7.12502
lthumb 6.28164 86.3059
rfemur -18.6251 -6.77847 18.7882
rtibia 46.2174
rfoot -5.23559 -12.5744
rtoes -2.86766
lfemur -7.80725 -6.27408 -19.4453
ltibia 21.0759
lfoot -20.1309 3.5576
ltoes -17.6275
94
root -19.7066 17.5944 -4.18142 -152.639 81.0974 -157.416
lowerback 5.3369 0.963158 -3.90331
upperback -1.48363 1.04226 0.739419
thorax -4.62065 0.63831 2.86274
lowerneck -21.3584 -0.567383 0.532888
upperneck 36.9565 -1.40125 3.89011
head 17.1269 0.52153 1.50529
rclavicle 3.06128e-014 1.11319e-014
rhumerus -36.5143 2.72035 -81.4697
rradius 36.4847
rwrist 0.91519
rhand -21.7051 22.5634
rfingers 7.12502
rthumb 4.69357 -7.36459
lclavicle 3.06128e-014 1.11319e-014
lhumerus -37.4627 -11.8525 91.7019
lradius 30.9102
lwrist 29.4615
lhand -20.1337 56.1743
lfingers 7.12502
lthumb 6.21077 86.0632
rfemur -20.0858 -6.81905 18.2609
rtibia 48.0876
rfoot -5.79742 -11.0038
rtoes -1.4353
lfemur -7.05793 -6.1932 -19.8183
ltibia 20.355
lfoot -20.2401 3.15955
ltoes -12.6811
95
root -19.6666 17.5925 -4.19915 -153.374 81.2261 -157.968
lowerback 5.60879 0.956093 -4.08723
upperback -1.33174 1.00461 0.615725
thorax -4.61463 0.620046 2.83901
lowerneck -21.3356 -0.519499 0.614392
upperneck 37.0236 -1.38102 3.9581
head 17.1577 0.554464 1.52857
rclavicle 3.56322e-014 -2.06736e-014
rhumerus -36.4475 2.80978 -81.799
rradius 36.8086
rwrist 0.145767
rhand -22.153 22.5621
rfingers 7.12502
rthumb 4.26102 -7.37504
lclavicle 3.56322e-014 -2.06736e-014
lhumerus -37.3687 -12.1271 91.4284
lradius 31.0619
lwrist 29.4414
lhand -20.0896 56.8392
lfingers 7.12502
lthumb 6.25332 86.7269
rfemur -21.3927 -6.93542 17.9369
rtibia 49.4729
rfoot -6.37827 -10.0268
rtoes -1.50529
lfemur -6.42602 -6.03992 -20.0408
ltibia 19.8292
lfoot -20.0856 2.9744
ltoes -12.4571
96
root -19.6205 17.5879 -4.21445 -153.106 81.2811 -157.598
lowerback 5.7755 0.934886 -4.08433
upperback -1.21234 0.968366 0.551544
thorax -4.58017 0.598318 2.77304
lowerneck -21.2863 -0.477154 0.657993
upperneck 37.0222 -1.34116 3.98496
head 17.1437 0.580367 1.54053
rclavicle -1.66482e-014 7.95139e-015
rhumerus -36.5472 2.97919 -82.1008
rradius 37.2658
rwrist -0.627824
rhand -22.4775 22.7656
rfingers 7.12502
rthumb 3.94765 -7.17755
lclavicle -1.66482e-014 7.95139e-015
lhumerus -37.1847 -12.212 91.0643
lradius 31.2572
lwrist 30.276
lhand -20.34 57.3314
lfingers 7.12502
lthumb 6.01156 87.2262
rfemur -22.6789 -7.01289 17.8655
rtibia 50.3452
rfoot -6.83061 -9.76214
rtoes -2.10036
lfemur -5.97872 -5.88594 -20.0714
ltibia 19.5101
lfoot -19.7692 3.20699
ltoes -16.4774
